<svg xmlns="http://www.w3.org/2000/svg" viewBox="0 0 512 512">
  <defs>
    <radialGradient id="lBg" cx="50%" cy="40%" r="60%">
      <stop offset="0%" stop-color="#1a1a3e"/>
      <stop offset="100%" stop-color="#0d0d1a"/>
    </radialGradient>
  </defs>
  <rect width="512" height="512" rx="110" fill="url(#lBg)"/>
  <clipPath id="lclip"><rect width="512" height="512" rx="110"/></clipPath>
  <g clip-path="url(#lclip)">
    <!-- Stars -->
    <circle cx="60" cy="80" r="2" fill="white" opacity="0.5"/>
    <circle cx="140" cy="40" r="1.5" fill="white" opacity="0.4"/>
    <circle cx="400" cy="60" r="2" fill="white" opacity="0.5"/>
    <circle cx="460" cy="130" r="1.5" fill="white" opacity="0.3"/>
    <circle cx="80" cy="200" r="1.5" fill="white" opacity="0.3"/>
    <circle cx="440" cy="300" r="2" fill="white" opacity="0.4"/>
    <!-- Rocket body -->
    <path d="M256 80 C290 80 330 130 340 200 L340 320 L256 360 L172 320 L172 200 C182 130 222 80 256 80Z" fill="#e8e8f0"/>
    <!-- Rocket window -->
    <circle cx="256" cy="210" r="38" fill="#5AC8FA" stroke="#2196F3" stroke-width="6"/>
    <circle cx="256" cy="210" r="26" fill="#1a8fe8"/>
    <ellipse cx="246" cy="200" rx="8" ry="5" fill="white" opacity="0.6"/>
    <!-- Rocket fins -->
    <path d="M172 280 L120 340 L172 320 Z" fill="#c0392b"/>
    <path d="M340 280 L392 340 L340 320 Z" fill="#c0392b"/>
    <!-- Rocket bottom -->
    <path d="M196 340 Q256 370 316 340 L316 360 Q256 395 196 360 Z" fill="#bbb"/>
    <!-- Flames -->
    <ellipse cx="256" cy="380" rx="30" ry="22" fill="#FF9500" opacity="0.9"/>
    <ellipse cx="236" cy="395" rx="16" ry="26" fill="#FF3B30" opacity="0.85"/>
    <ellipse cx="256" cy="405" rx="20" ry="35" fill="#FFD60A" opacity="0.7"/>
    <ellipse cx="276" cy="395" rx="16" ry="26" fill="#FF3B30" opacity="0.85"/>
    <!-- Nose cone -->
    <path d="M220 120 Q256 50 292 120 Z" fill="#e8e8f0"/>
    <!-- Stripe -->
    <path d="M178 250 L334 250" stroke="#c0392b" stroke-width="12" stroke-linecap="round"/>
  </g>
</svg>
